<mxfile host="app.diagrams.net" agent="Mozilla/5.0 (Windows NT 10.0; Win64; x64) AppleWebKit/537.36 (KHTML, like Gecko) Chrome/131.0.0.0 Safari/537.36" version="25.0.1">
  <diagram name="PaginÄƒ-1" id="fd6afb7Q0kf5Q31nNGfa">
    <mxGraphModel dx="2440" dy="889" grid="1" gridSize="10" guides="1" tooltips="1" connect="1" arrows="1" fold="1" page="1" pageScale="1" pageWidth="1654" pageHeight="1169" math="0" shadow="0">
      <root>
        <mxCell id="0" />
        <mxCell id="1" parent="0" />
        <mxCell id="tLmZWXUSCV0tKJOyGcvH-9" value="" style="group" vertex="1" connectable="0" parent="1">
          <mxGeometry x="240" y="730" width="270" height="60" as="geometry" />
        </mxCell>
        <mxCell id="tLmZWXUSCV0tKJOyGcvH-10" value="&lt;u&gt;ID&lt;/u&gt;" style="rounded=0;whiteSpace=wrap;html=1;" vertex="1" parent="tLmZWXUSCV0tKJOyGcvH-9">
          <mxGeometry y="30" width="90" height="30" as="geometry" />
        </mxCell>
        <mxCell id="tLmZWXUSCV0tKJOyGcvH-11" value="Author" style="text;html=1;align=center;verticalAlign=middle;whiteSpace=wrap;rounded=0;fillColor=#d5e8d4;strokeColor=#82b366;" vertex="1" parent="tLmZWXUSCV0tKJOyGcvH-9">
          <mxGeometry width="60" height="30" as="geometry" />
        </mxCell>
        <mxCell id="tLmZWXUSCV0tKJOyGcvH-12" value="WriterType" style="rounded=0;whiteSpace=wrap;html=1;" vertex="1" parent="tLmZWXUSCV0tKJOyGcvH-9">
          <mxGeometry x="90" y="30" width="90" height="30" as="geometry" />
        </mxCell>
        <mxCell id="tLmZWXUSCV0tKJOyGcvH-13" value="writer_id" style="rounded=0;whiteSpace=wrap;html=1;" vertex="1" parent="tLmZWXUSCV0tKJOyGcvH-9">
          <mxGeometry x="180" y="30" width="90" height="30" as="geometry" />
        </mxCell>
        <mxCell id="tLmZWXUSCV0tKJOyGcvH-14" value="" style="group" vertex="1" connectable="0" parent="1">
          <mxGeometry x="240" y="570" width="270" height="60" as="geometry" />
        </mxCell>
        <mxCell id="tLmZWXUSCV0tKJOyGcvH-15" value="&lt;u&gt;ID&lt;/u&gt;" style="rounded=0;whiteSpace=wrap;html=1;container=0;" vertex="1" parent="tLmZWXUSCV0tKJOyGcvH-14">
          <mxGeometry y="30" width="90" height="30" as="geometry" />
        </mxCell>
        <mxCell id="tLmZWXUSCV0tKJOyGcvH-16" value="Client" style="text;html=1;align=center;verticalAlign=middle;whiteSpace=wrap;rounded=0;container=0;fillColor=#d5e8d4;strokeColor=#82b366;" vertex="1" parent="tLmZWXUSCV0tKJOyGcvH-14">
          <mxGeometry width="60" height="30" as="geometry" />
        </mxCell>
        <mxCell id="tLmZWXUSCV0tKJOyGcvH-17" value="ClientType" style="rounded=0;whiteSpace=wrap;html=1;container=0;" vertex="1" parent="tLmZWXUSCV0tKJOyGcvH-14">
          <mxGeometry x="90" y="30" width="90" height="30" as="geometry" />
        </mxCell>
        <mxCell id="tLmZWXUSCV0tKJOyGcvH-18" value="client_id" style="rounded=0;whiteSpace=wrap;html=1;container=0;" vertex="1" parent="tLmZWXUSCV0tKJOyGcvH-14">
          <mxGeometry x="180" y="30" width="90" height="30" as="geometry" />
        </mxCell>
        <mxCell id="tLmZWXUSCV0tKJOyGcvH-19" value="" style="group" vertex="1" connectable="0" parent="1">
          <mxGeometry x="790" y="570" width="500" height="60" as="geometry" />
        </mxCell>
        <mxCell id="tLmZWXUSCV0tKJOyGcvH-20" value="&lt;span style=&quot;text-decoration-line: underline;&quot;&gt;order_id&lt;/span&gt;" style="rounded=0;whiteSpace=wrap;html=1;" vertex="1" parent="tLmZWXUSCV0tKJOyGcvH-19">
          <mxGeometry y="30" width="100" height="30" as="geometry" />
        </mxCell>
        <mxCell id="tLmZWXUSCV0tKJOyGcvH-21" value="order_number" style="rounded=0;whiteSpace=wrap;html=1;" vertex="1" parent="tLmZWXUSCV0tKJOyGcvH-19">
          <mxGeometry x="300" y="30" width="100" height="30" as="geometry" />
        </mxCell>
        <mxCell id="tLmZWXUSCV0tKJOyGcvH-22" value="Order" style="text;html=1;align=center;verticalAlign=middle;whiteSpace=wrap;rounded=0;fillColor=#d5e8d4;strokeColor=#82b366;" vertex="1" parent="tLmZWXUSCV0tKJOyGcvH-19">
          <mxGeometry width="60" height="30" as="geometry" />
        </mxCell>
        <mxCell id="tLmZWXUSCV0tKJOyGcvH-23" value="order_amount" style="rounded=0;whiteSpace=wrap;html=1;" vertex="1" parent="tLmZWXUSCV0tKJOyGcvH-19">
          <mxGeometry x="400" y="30" width="100" height="30" as="geometry" />
        </mxCell>
        <mxCell id="tLmZWXUSCV0tKJOyGcvH-24" value="issued_date" style="rounded=0;whiteSpace=wrap;html=1;" vertex="1" parent="tLmZWXUSCV0tKJOyGcvH-19">
          <mxGeometry x="200" y="30" width="100" height="30" as="geometry" />
        </mxCell>
        <mxCell id="tLmZWXUSCV0tKJOyGcvH-25" value="client_id" style="rounded=0;whiteSpace=wrap;html=1;" vertex="1" parent="tLmZWXUSCV0tKJOyGcvH-19">
          <mxGeometry x="100" y="30" width="100" height="30" as="geometry" />
        </mxCell>
        <mxCell id="tLmZWXUSCV0tKJOyGcvH-26" value="" style="group" vertex="1" connectable="0" parent="1">
          <mxGeometry x="790" y="730" width="700" height="60" as="geometry" />
        </mxCell>
        <mxCell id="tLmZWXUSCV0tKJOyGcvH-27" value="&lt;span style=&quot;text-decoration-line: underline;&quot;&gt;ISBN&lt;/span&gt;" style="rounded=0;whiteSpace=wrap;html=1;" vertex="1" parent="tLmZWXUSCV0tKJOyGcvH-26">
          <mxGeometry y="30" width="100" height="30" as="geometry" />
        </mxCell>
        <mxCell id="tLmZWXUSCV0tKJOyGcvH-28" value="title" style="rounded=0;whiteSpace=wrap;html=1;" vertex="1" parent="tLmZWXUSCV0tKJOyGcvH-26">
          <mxGeometry x="400" y="30" width="100" height="30" as="geometry" />
        </mxCell>
        <mxCell id="tLmZWXUSCV0tKJOyGcvH-29" value="Book" style="text;html=1;align=center;verticalAlign=middle;whiteSpace=wrap;rounded=0;fillColor=#d5e8d4;strokeColor=#82b366;" vertex="1" parent="tLmZWXUSCV0tKJOyGcvH-26">
          <mxGeometry width="60" height="30" as="geometry" />
        </mxCell>
        <mxCell id="tLmZWXUSCV0tKJOyGcvH-30" value="publication_date" style="rounded=0;whiteSpace=wrap;html=1;" vertex="1" parent="tLmZWXUSCV0tKJOyGcvH-26">
          <mxGeometry x="500" y="30" width="100" height="30" as="geometry" />
        </mxCell>
        <mxCell id="tLmZWXUSCV0tKJOyGcvH-31" value="publisher_id" style="rounded=0;whiteSpace=wrap;html=1;" vertex="1" parent="tLmZWXUSCV0tKJOyGcvH-26">
          <mxGeometry x="200" y="30" width="100" height="30" as="geometry" />
        </mxCell>
        <mxCell id="tLmZWXUSCV0tKJOyGcvH-32" value="price" style="rounded=0;whiteSpace=wrap;html=1;" vertex="1" parent="tLmZWXUSCV0tKJOyGcvH-26">
          <mxGeometry x="600" y="30" width="100" height="30" as="geometry" />
        </mxCell>
        <mxCell id="tLmZWXUSCV0tKJOyGcvH-33" value="category_id" style="rounded=0;whiteSpace=wrap;html=1;" vertex="1" parent="tLmZWXUSCV0tKJOyGcvH-26">
          <mxGeometry x="300" y="30" width="100" height="30" as="geometry" />
        </mxCell>
        <mxCell id="tLmZWXUSCV0tKJOyGcvH-34" value="writer_id" style="rounded=0;whiteSpace=wrap;html=1;" vertex="1" parent="tLmZWXUSCV0tKJOyGcvH-26">
          <mxGeometry x="100" y="30" width="100" height="30" as="geometry" />
        </mxCell>
        <mxCell id="tLmZWXUSCV0tKJOyGcvH-35" value="" style="group" vertex="1" connectable="0" parent="1">
          <mxGeometry x="690" y="410" width="400" height="60" as="geometry" />
        </mxCell>
        <mxCell id="tLmZWXUSCV0tKJOyGcvH-36" value="&lt;span style=&quot;text-decoration-line: underline;&quot;&gt;payment_id&lt;/span&gt;" style="rounded=0;whiteSpace=wrap;html=1;" vertex="1" parent="tLmZWXUSCV0tKJOyGcvH-35">
          <mxGeometry y="30" width="100" height="30" as="geometry" />
        </mxCell>
        <mxCell id="tLmZWXUSCV0tKJOyGcvH-37" value="payment_date" style="rounded=0;whiteSpace=wrap;html=1;" vertex="1" parent="tLmZWXUSCV0tKJOyGcvH-35">
          <mxGeometry x="300" y="30" width="100" height="30" as="geometry" />
        </mxCell>
        <mxCell id="tLmZWXUSCV0tKJOyGcvH-38" value="Payment" style="text;html=1;align=center;verticalAlign=middle;whiteSpace=wrap;rounded=0;fillColor=#d5e8d4;strokeColor=#82b366;" vertex="1" parent="tLmZWXUSCV0tKJOyGcvH-35">
          <mxGeometry width="60" height="30" as="geometry" />
        </mxCell>
        <mxCell id="tLmZWXUSCV0tKJOyGcvH-39" value="amount" style="rounded=0;whiteSpace=wrap;html=1;" vertex="1" parent="tLmZWXUSCV0tKJOyGcvH-35">
          <mxGeometry x="100" y="30" width="100" height="30" as="geometry" />
        </mxCell>
        <mxCell id="tLmZWXUSCV0tKJOyGcvH-40" value="payment_method" style="rounded=0;whiteSpace=wrap;html=1;" vertex="1" parent="tLmZWXUSCV0tKJOyGcvH-35">
          <mxGeometry x="200" y="30" width="100" height="30" as="geometry" />
        </mxCell>
        <mxCell id="tLmZWXUSCV0tKJOyGcvH-41" value="" style="group" vertex="1" connectable="0" parent="1">
          <mxGeometry x="590" y="490" width="200" height="60" as="geometry" />
        </mxCell>
        <mxCell id="tLmZWXUSCV0tKJOyGcvH-42" value="&lt;span style=&quot;text-decoration-line: underline;&quot;&gt;payment_id&lt;/span&gt;" style="rounded=0;whiteSpace=wrap;html=1;" vertex="1" parent="tLmZWXUSCV0tKJOyGcvH-41">
          <mxGeometry y="30" width="100" height="30" as="geometry" />
        </mxCell>
        <mxCell id="tLmZWXUSCV0tKJOyGcvH-43" value="Paid with" style="text;html=1;align=center;verticalAlign=middle;whiteSpace=wrap;rounded=0;fillColor=#dae8fc;strokeColor=#6c8ebf;" vertex="1" parent="tLmZWXUSCV0tKJOyGcvH-41">
          <mxGeometry width="60" height="30" as="geometry" />
        </mxCell>
        <mxCell id="tLmZWXUSCV0tKJOyGcvH-44" value="&lt;span style=&quot;text-decoration-line: underline;&quot;&gt;order_id&lt;/span&gt;" style="rounded=0;whiteSpace=wrap;html=1;" vertex="1" parent="tLmZWXUSCV0tKJOyGcvH-41">
          <mxGeometry x="100" y="30" width="100" height="30" as="geometry" />
        </mxCell>
        <mxCell id="tLmZWXUSCV0tKJOyGcvH-45" value="" style="group" vertex="1" connectable="0" parent="1">
          <mxGeometry x="590" y="650" width="200" height="60" as="geometry" />
        </mxCell>
        <mxCell id="tLmZWXUSCV0tKJOyGcvH-46" value="&lt;span style=&quot;text-decoration-line: underline;&quot;&gt;order_id&lt;/span&gt;" style="rounded=0;whiteSpace=wrap;html=1;" vertex="1" parent="tLmZWXUSCV0tKJOyGcvH-45">
          <mxGeometry y="30" width="100" height="30" as="geometry" />
        </mxCell>
        <mxCell id="tLmZWXUSCV0tKJOyGcvH-47" value="Contains" style="text;html=1;align=center;verticalAlign=middle;whiteSpace=wrap;rounded=0;fillColor=#dae8fc;strokeColor=#6c8ebf;" vertex="1" parent="tLmZWXUSCV0tKJOyGcvH-45">
          <mxGeometry width="60" height="30" as="geometry" />
        </mxCell>
        <mxCell id="tLmZWXUSCV0tKJOyGcvH-48" value="&lt;span style=&quot;text-decoration-line: underline;&quot;&gt;ISBN&lt;/span&gt;" style="rounded=0;whiteSpace=wrap;html=1;" vertex="1" parent="tLmZWXUSCV0tKJOyGcvH-45">
          <mxGeometry x="100" y="30" width="100" height="30" as="geometry" />
        </mxCell>
        <mxCell id="tLmZWXUSCV0tKJOyGcvH-49" value="" style="group" vertex="1" connectable="0" parent="1">
          <mxGeometry x="890" y="810" width="400" height="60" as="geometry" />
        </mxCell>
        <mxCell id="tLmZWXUSCV0tKJOyGcvH-50" value="&lt;span style=&quot;text-decoration-line: underline;&quot;&gt;publisher_id&lt;/span&gt;" style="rounded=0;whiteSpace=wrap;html=1;" vertex="1" parent="tLmZWXUSCV0tKJOyGcvH-49">
          <mxGeometry y="30" width="100" height="30" as="geometry" />
        </mxCell>
        <mxCell id="tLmZWXUSCV0tKJOyGcvH-51" value="Publisher" style="text;html=1;align=center;verticalAlign=middle;whiteSpace=wrap;rounded=0;fillColor=#d5e8d4;strokeColor=#82b366;" vertex="1" parent="tLmZWXUSCV0tKJOyGcvH-49">
          <mxGeometry width="60" height="30" as="geometry" />
        </mxCell>
        <mxCell id="tLmZWXUSCV0tKJOyGcvH-52" value="phone_number" style="rounded=0;whiteSpace=wrap;html=1;" vertex="1" parent="tLmZWXUSCV0tKJOyGcvH-49">
          <mxGeometry x="200" y="30" width="100" height="30" as="geometry" />
        </mxCell>
        <mxCell id="tLmZWXUSCV0tKJOyGcvH-53" value="e-mail" style="rounded=0;whiteSpace=wrap;html=1;" vertex="1" parent="tLmZWXUSCV0tKJOyGcvH-49">
          <mxGeometry x="300" y="30" width="100" height="30" as="geometry" />
        </mxCell>
        <mxCell id="tLmZWXUSCV0tKJOyGcvH-54" value="publisher_name" style="rounded=0;whiteSpace=wrap;html=1;" vertex="1" parent="tLmZWXUSCV0tKJOyGcvH-49">
          <mxGeometry x="100" y="30" width="100" height="30" as="geometry" />
        </mxCell>
        <mxCell id="tLmZWXUSCV0tKJOyGcvH-55" value="" style="group" vertex="1" connectable="0" parent="1">
          <mxGeometry x="890" y="890" width="200" height="60" as="geometry" />
        </mxCell>
        <mxCell id="tLmZWXUSCV0tKJOyGcvH-56" value="&lt;span style=&quot;text-decoration-line: underline;&quot;&gt;category_id&lt;/span&gt;" style="rounded=0;whiteSpace=wrap;html=1;" vertex="1" parent="tLmZWXUSCV0tKJOyGcvH-55">
          <mxGeometry y="30" width="100" height="30" as="geometry" />
        </mxCell>
        <mxCell id="tLmZWXUSCV0tKJOyGcvH-57" value="Category" style="text;html=1;align=center;verticalAlign=middle;whiteSpace=wrap;rounded=0;fillColor=#d5e8d4;strokeColor=#82b366;" vertex="1" parent="tLmZWXUSCV0tKJOyGcvH-55">
          <mxGeometry width="60" height="30" as="geometry" />
        </mxCell>
        <mxCell id="tLmZWXUSCV0tKJOyGcvH-58" value="category_name" style="rounded=0;whiteSpace=wrap;html=1;" vertex="1" parent="tLmZWXUSCV0tKJOyGcvH-55">
          <mxGeometry x="100" y="30" width="100" height="30" as="geometry" />
        </mxCell>
        <mxCell id="tLmZWXUSCV0tKJOyGcvH-59" value="" style="group" vertex="1" connectable="0" parent="1">
          <mxGeometry x="140" y="340" width="700" height="60" as="geometry" />
        </mxCell>
        <mxCell id="tLmZWXUSCV0tKJOyGcvH-60" value="&lt;span style=&quot;text-decoration-line: underline;&quot;&gt;ID&lt;/span&gt;" style="rounded=0;whiteSpace=wrap;html=1;" vertex="1" parent="tLmZWXUSCV0tKJOyGcvH-59">
          <mxGeometry y="30" width="100" height="30" as="geometry" />
        </mxCell>
        <mxCell id="tLmZWXUSCV0tKJOyGcvH-61" value="first_name" style="rounded=0;whiteSpace=wrap;html=1;" vertex="1" parent="tLmZWXUSCV0tKJOyGcvH-59">
          <mxGeometry x="200" y="30" width="100" height="30" as="geometry" />
        </mxCell>
        <mxCell id="tLmZWXUSCV0tKJOyGcvH-62" value="Person" style="text;html=1;align=center;verticalAlign=middle;whiteSpace=wrap;rounded=0;fillColor=#d5e8d4;strokeColor=#82b366;" vertex="1" parent="tLmZWXUSCV0tKJOyGcvH-59">
          <mxGeometry width="60" height="30" as="geometry" />
        </mxCell>
        <mxCell id="tLmZWXUSCV0tKJOyGcvH-63" value="last_name" style="rounded=0;whiteSpace=wrap;html=1;" vertex="1" parent="tLmZWXUSCV0tKJOyGcvH-59">
          <mxGeometry x="300" y="30" width="100" height="30" as="geometry" />
        </mxCell>
        <mxCell id="tLmZWXUSCV0tKJOyGcvH-64" value="adress_id" style="rounded=0;whiteSpace=wrap;html=1;" vertex="1" parent="tLmZWXUSCV0tKJOyGcvH-59">
          <mxGeometry x="100" y="30" width="100" height="30" as="geometry" />
        </mxCell>
        <mxCell id="tLmZWXUSCV0tKJOyGcvH-65" value="e-mail" style="rounded=0;whiteSpace=wrap;html=1;" vertex="1" parent="tLmZWXUSCV0tKJOyGcvH-59">
          <mxGeometry x="400" y="30" width="100" height="30" as="geometry" />
        </mxCell>
        <mxCell id="tLmZWXUSCV0tKJOyGcvH-66" value="home_phone" style="rounded=0;whiteSpace=wrap;html=1;" vertex="1" parent="tLmZWXUSCV0tKJOyGcvH-59">
          <mxGeometry x="500" y="30" width="100" height="30" as="geometry" />
        </mxCell>
        <mxCell id="tLmZWXUSCV0tKJOyGcvH-67" value="mobile_phone" style="rounded=0;whiteSpace=wrap;html=1;" vertex="1" parent="tLmZWXUSCV0tKJOyGcvH-59">
          <mxGeometry x="600" y="30" width="100" height="30" as="geometry" />
        </mxCell>
        <mxCell id="tLmZWXUSCV0tKJOyGcvH-68" style="edgeStyle=orthogonalEdgeStyle;rounded=0;orthogonalLoop=1;jettySize=auto;html=1;entryX=0.5;entryY=1;entryDx=0;entryDy=0;" edge="1" parent="1" source="tLmZWXUSCV0tKJOyGcvH-64" target="tLmZWXUSCV0tKJOyGcvH-2">
          <mxGeometry relative="1" as="geometry">
            <Array as="points">
              <mxPoint x="290" y="260" />
              <mxPoint x="190" y="260" />
            </Array>
          </mxGeometry>
        </mxCell>
        <mxCell id="tLmZWXUSCV0tKJOyGcvH-69" style="edgeStyle=orthogonalEdgeStyle;rounded=0;orthogonalLoop=1;jettySize=auto;html=1;entryX=0.25;entryY=1;entryDx=0;entryDy=0;" edge="1" parent="1" source="tLmZWXUSCV0tKJOyGcvH-10" target="tLmZWXUSCV0tKJOyGcvH-60">
          <mxGeometry relative="1" as="geometry">
            <Array as="points">
              <mxPoint x="165" y="775" />
            </Array>
          </mxGeometry>
        </mxCell>
        <mxCell id="tLmZWXUSCV0tKJOyGcvH-70" style="edgeStyle=orthogonalEdgeStyle;rounded=0;orthogonalLoop=1;jettySize=auto;html=1;entryX=0.75;entryY=1;entryDx=0;entryDy=0;" edge="1" parent="1" source="tLmZWXUSCV0tKJOyGcvH-15" target="tLmZWXUSCV0tKJOyGcvH-60">
          <mxGeometry relative="1" as="geometry">
            <mxPoint x="210" y="390" as="targetPoint" />
            <Array as="points">
              <mxPoint x="215" y="615" />
            </Array>
          </mxGeometry>
        </mxCell>
        <mxCell id="tLmZWXUSCV0tKJOyGcvH-71" style="edgeStyle=orthogonalEdgeStyle;rounded=0;orthogonalLoop=1;jettySize=auto;html=1;entryX=0.5;entryY=0;entryDx=0;entryDy=0;" edge="1" parent="1" source="tLmZWXUSCV0tKJOyGcvH-25" target="tLmZWXUSCV0tKJOyGcvH-18">
          <mxGeometry relative="1" as="geometry">
            <Array as="points">
              <mxPoint x="940" y="560" />
              <mxPoint x="465" y="560" />
            </Array>
          </mxGeometry>
        </mxCell>
        <mxCell id="tLmZWXUSCV0tKJOyGcvH-72" style="edgeStyle=orthogonalEdgeStyle;rounded=0;orthogonalLoop=1;jettySize=auto;html=1;entryX=0;entryY=0.5;entryDx=0;entryDy=0;" edge="1" parent="1" source="tLmZWXUSCV0tKJOyGcvH-42" target="tLmZWXUSCV0tKJOyGcvH-36">
          <mxGeometry relative="1" as="geometry">
            <Array as="points">
              <mxPoint x="670" y="455" />
            </Array>
          </mxGeometry>
        </mxCell>
        <mxCell id="tLmZWXUSCV0tKJOyGcvH-73" style="edgeStyle=orthogonalEdgeStyle;rounded=0;orthogonalLoop=1;jettySize=auto;html=1;entryX=0;entryY=0.5;entryDx=0;entryDy=0;" edge="1" parent="1" source="tLmZWXUSCV0tKJOyGcvH-44" target="tLmZWXUSCV0tKJOyGcvH-20">
          <mxGeometry relative="1" as="geometry" />
        </mxCell>
        <mxCell id="tLmZWXUSCV0tKJOyGcvH-74" style="edgeStyle=orthogonalEdgeStyle;rounded=0;orthogonalLoop=1;jettySize=auto;html=1;entryX=0;entryY=0.5;entryDx=0;entryDy=0;" edge="1" parent="1" source="tLmZWXUSCV0tKJOyGcvH-48" target="tLmZWXUSCV0tKJOyGcvH-27">
          <mxGeometry relative="1" as="geometry" />
        </mxCell>
        <mxCell id="tLmZWXUSCV0tKJOyGcvH-75" style="edgeStyle=orthogonalEdgeStyle;rounded=0;orthogonalLoop=1;jettySize=auto;html=1;exitX=0.75;exitY=0;exitDx=0;exitDy=0;entryX=0;entryY=0.5;entryDx=0;entryDy=0;" edge="1" parent="1" source="tLmZWXUSCV0tKJOyGcvH-46" target="tLmZWXUSCV0tKJOyGcvH-20">
          <mxGeometry relative="1" as="geometry">
            <Array as="points">
              <mxPoint x="665" y="615" />
            </Array>
          </mxGeometry>
        </mxCell>
        <mxCell id="tLmZWXUSCV0tKJOyGcvH-76" style="edgeStyle=orthogonalEdgeStyle;rounded=0;orthogonalLoop=1;jettySize=auto;html=1;entryX=1;entryY=0.5;entryDx=0;entryDy=0;" edge="1" parent="1" source="tLmZWXUSCV0tKJOyGcvH-34" target="tLmZWXUSCV0tKJOyGcvH-13">
          <mxGeometry relative="1" as="geometry">
            <Array as="points">
              <mxPoint x="940" y="800" />
              <mxPoint x="630" y="800" />
              <mxPoint x="630" y="775" />
            </Array>
          </mxGeometry>
        </mxCell>
        <mxCell id="tLmZWXUSCV0tKJOyGcvH-77" style="edgeStyle=orthogonalEdgeStyle;rounded=0;orthogonalLoop=1;jettySize=auto;html=1;entryX=0.75;entryY=0;entryDx=0;entryDy=0;" edge="1" parent="1" source="tLmZWXUSCV0tKJOyGcvH-31" target="tLmZWXUSCV0tKJOyGcvH-50">
          <mxGeometry relative="1" as="geometry" />
        </mxCell>
        <mxCell id="tLmZWXUSCV0tKJOyGcvH-78" style="edgeStyle=orthogonalEdgeStyle;rounded=0;orthogonalLoop=1;jettySize=auto;html=1;entryX=0.75;entryY=0;entryDx=0;entryDy=0;" edge="1" parent="1" source="tLmZWXUSCV0tKJOyGcvH-33" target="tLmZWXUSCV0tKJOyGcvH-56">
          <mxGeometry relative="1" as="geometry">
            <Array as="points">
              <mxPoint x="1140" y="810" />
              <mxPoint x="1320" y="810" />
              <mxPoint x="1320" y="890" />
              <mxPoint x="965" y="890" />
            </Array>
          </mxGeometry>
        </mxCell>
        <mxCell id="tLmZWXUSCV0tKJOyGcvH-79" value="" style="group" vertex="1" connectable="0" parent="1">
          <mxGeometry x="140" y="170" width="400" height="60" as="geometry" />
        </mxCell>
        <mxCell id="tLmZWXUSCV0tKJOyGcvH-2" value="&lt;span style=&quot;text-decoration-line: underline;&quot;&gt;address_id&lt;/span&gt;" style="rounded=0;whiteSpace=wrap;html=1;" vertex="1" parent="tLmZWXUSCV0tKJOyGcvH-79">
          <mxGeometry y="30" width="100" height="30" as="geometry" />
        </mxCell>
        <mxCell id="tLmZWXUSCV0tKJOyGcvH-4" value="Address" style="text;html=1;align=center;verticalAlign=middle;whiteSpace=wrap;rounded=0;fillColor=#d5e8d4;strokeColor=#82b366;" vertex="1" parent="tLmZWXUSCV0tKJOyGcvH-79">
          <mxGeometry width="60" height="30" as="geometry" />
        </mxCell>
        <mxCell id="tLmZWXUSCV0tKJOyGcvH-6" value="ZIP_code" style="rounded=0;whiteSpace=wrap;html=1;" vertex="1" parent="tLmZWXUSCV0tKJOyGcvH-79">
          <mxGeometry x="100" y="30" width="100" height="30" as="geometry" />
        </mxCell>
        <mxCell id="tLmZWXUSCV0tKJOyGcvH-7" value="street_name" style="rounded=0;whiteSpace=wrap;html=1;" vertex="1" parent="tLmZWXUSCV0tKJOyGcvH-79">
          <mxGeometry x="200" y="30" width="100" height="30" as="geometry" />
        </mxCell>
        <mxCell id="tLmZWXUSCV0tKJOyGcvH-8" value="address_addition" style="rounded=0;whiteSpace=wrap;html=1;" vertex="1" parent="tLmZWXUSCV0tKJOyGcvH-79">
          <mxGeometry x="300" y="30" width="100" height="30" as="geometry" />
        </mxCell>
        <mxCell id="tLmZWXUSCV0tKJOyGcvH-86" value="" style="group" vertex="1" connectable="0" parent="1">
          <mxGeometry x="240" y="60" width="300" height="60" as="geometry" />
        </mxCell>
        <mxCell id="tLmZWXUSCV0tKJOyGcvH-3" value="state" style="rounded=0;whiteSpace=wrap;html=1;" vertex="1" parent="tLmZWXUSCV0tKJOyGcvH-86">
          <mxGeometry x="100" y="30" width="100" height="30" as="geometry" />
        </mxCell>
        <mxCell id="tLmZWXUSCV0tKJOyGcvH-5" value="city" style="rounded=0;whiteSpace=wrap;html=1;" vertex="1" parent="tLmZWXUSCV0tKJOyGcvH-86">
          <mxGeometry x="200" y="30" width="100" height="30" as="geometry" />
        </mxCell>
        <mxCell id="tLmZWXUSCV0tKJOyGcvH-81" value="&lt;u&gt;ZIP_code&lt;/u&gt;" style="rounded=0;whiteSpace=wrap;html=1;" vertex="1" parent="tLmZWXUSCV0tKJOyGcvH-86">
          <mxGeometry y="30" width="100" height="30" as="geometry" />
        </mxCell>
        <mxCell id="tLmZWXUSCV0tKJOyGcvH-82" value="ZIP_Location" style="text;html=1;align=center;verticalAlign=middle;whiteSpace=wrap;rounded=0;fillColor=#d5e8d4;strokeColor=#82b366;" vertex="1" parent="tLmZWXUSCV0tKJOyGcvH-86">
          <mxGeometry width="80" height="30" as="geometry" />
        </mxCell>
        <mxCell id="tLmZWXUSCV0tKJOyGcvH-88" style="edgeStyle=orthogonalEdgeStyle;rounded=0;orthogonalLoop=1;jettySize=auto;html=1;" edge="1" parent="1" source="tLmZWXUSCV0tKJOyGcvH-6" target="tLmZWXUSCV0tKJOyGcvH-81">
          <mxGeometry relative="1" as="geometry" />
        </mxCell>
      </root>
    </mxGraphModel>
  </diagram>
</mxfile>
